<?xml version="1.0" standalone="no"?>
<!DOCTYPE svg PUBLIC "-//W3C//DTD SVG 20010904//EN"
 "http://www.w3.org/TR/2001/REC-SVG-20010904/DTD/svg10.dtd">
<svg version="1.0" xmlns="http://www.w3.org/2000/svg"
 width="217.000000pt" height="217.000000pt" viewBox="0 0 217.000000 217.000000"
 preserveAspectRatio="xMidYMid meet">
<metadata>
Created by potrace 1.11, written by Peter Selinger 2001-2013
</metadata>
<g transform="translate(0.000000,217.000000) scale(0.100000,-0.100000)"
fill="#000000" stroke="none">
<path d="M957 2154 c-2 -2 -24 -7 -48 -10 -103 -14 -232 -58 -337 -114 -73
-39 -75 -40 -96 -23 -11 10 -27 26 -34 36 -23 30 -31 19 -30 -45 l1 -63 -84
-85 c-93 -95 -129 -136 -129 -148 0 -5 -8 -17 -18 -28 -25 -26 -122 -221 -122
-243 0 -10 -3 -21 -7 -25 -4 -3 -8 -12 -10 -19 -1 -7 -7 -30 -12 -52 -33 -125
-35 -331 -6 -475 21 -105 95 -277 158 -370 45 -65 44 -64 132 -154 89 -90 112
-109 164 -139 20 -12 38 -24 41 -27 12 -13 131 -70 199 -94 138 -50 212 -61
391 -59 125 1 223 17 335 56 37 14 58 23 125 55 41 19 76 39 78 44 2 4 9 8 14
8 28 0 278 220 278 245 0 3 6 13 13 20 57 64 113 169 161 302 14 40 24 73 21
73 -2 0 0 12 6 28 30 77 32 341 4 460 -3 12 -7 31 -10 42 -14 68 -61 180 -116
280 -24 43 -91 133 -132 175 -38 39 -38 41 -32 95 17 137 17 137 -31 94 -16
-14 -42 -32 -57 -40 -27 -14 -30 -14 -61 9 -47 37 -205 119 -215 112 -5 -3
-11 -1 -13 4 -3 11 -148 54 -218 66 -47 8 -296 15 -303 9z"/>
</g>
</svg>
